<svg xmlns="http://www.w3.org/2000/svg" id="Layer_1" data-name="Layer 1" viewBox="0 0 315.78 315.78"><defs><style>.cls-1{fill:#918bff}.cls-2{fill:#fff}.cls-3{fill:#733400}</style></defs><path d="M106.66,159v98l16-16,17.5,16,18.5-19,15.68,19,15.32-18,15,18V124s0-64-49-64-49,64-49,64v34" class="cls-1"/><ellipse cx="140.16" cy="142" class="cls-2" rx="11.5" ry="18"/><ellipse cx="176.16" cy="142" class="cls-2" rx="11.5" ry="18"/><ellipse cx="176.45" cy="142.33" rx="6.82" ry="10.67"/><ellipse cx="139.77" cy="142.65" rx="6.82" ry="10.67"/><path d="M133.66,201c4.8,1.86,21.12,7.68,37,2,6.1-2.18,8.75-6.31,12-9Z"/><path d="M106.66,111.83,136.28,99,132.2,120.2l27.56-14.5-5.1,20.07L183.25,99l-5.11,21.18,15.32-11.15-4.09,19,14.09-11.24S202.65,60,154.66,60,106.66,111.83,106.66,111.83Z" class="cls-3"/></svg>