<svg id="Layer_1" data-name="Layer 1" 
    xmlns="http://www.w3.org/2000/svg" viewBox="0 0 898.05 125.31">
    <defs>
        <style>
            .cls-1{fill:#ea7526;stroke:#852F0F;stroke-miterlimit:10;stroke-width:3px;}
            .cls-2{fill:none;}
        </style>
    </defs>
    <path class="cls-1" d="M1048.76,581.27a18.26,18.26,0,0,1-2,2.94c-2.88,2.79-8,3.53-11.4,1.32a19.8,19.8,0,0,1-5.72-5.36,30,30,0,0,1-5-12.7c-.88-6.59-2.23-13.11-3.44-20-.82,1.83-1.52,3.41-2.22,5-2.28,5.15-5,10.05-9.57,13.51-6.67,5-14.49,4.08-20.4-1.86a63.46,63.46,0,0,1-10.23-13.4c-.07.73-.16,1.46-.2,2.2-.4,8.47-.76,17-1.24,25.41a15.43,15.43,0,0,1-1,5.25c-.95,2.15-4.39,3.15-7.06,2.44-2.49-.67-4.65-3.13-4.59-5.55.1-4.24.34-8.48.53-12.71.77-17.3,1.88-34.61.82-51.94a13.11,13.11,0,0,1,1.09-4.74c1.59-4.65,7.61-3.78,9.62-.78a18.19,18.19,0,0,1,1.93,3.81c1.93,5.25,3.64,10.57,5.65,15.78a142.72,142.72,0,0,0,6.56,15.42,51.63,51.63,0,0,0,7.29,9.75c1.73,2,2.87,1.82,4.4-.25a38.21,38.21,0,0,0,5-8.2,121.84,121.84,0,0,0,7.43-28.27,130.88,130.88,0,0,1,2.76-13.07,6.94,6.94,0,0,1,7-5.25,7.09,7.09,0,0,1,6.41,6c.58,4.92.94,9.87,1.21,14.82.75,13.63,1.54,27.27,4.16,40.71.66,3.35,1.68,6.64,2.61,9.93a11.4,11.4,0,0,0,1.17,2.18c4.54-1.28,6.32-3.91,6.42-8.3a163.28,163.28,0,0,1,1-17c.32-2.48,1.93-4.83,3.14-7.14a36,36,0,0,1,2.8-4c4.17,4.43,7.37,8.92,6.57,15.7s-.35,13.47-.36,20.22a10.47,10.47,0,0,0,.81,2.84,24.61,24.61,0,0,1,1.29,4.07,6.56,6.56,0,0,1-3.37,6.51,6.63,6.63,0,0,1-7.17-1.53A40,40,0,0,1,1048.76,581.27Z" transform="translate(-510.78 -478.1)"/>
    <path class="cls-1" d="M529,546.75c7.91,1.16,15.43,2.35,23.07,1.1,3-.49,6-1.05,8.93-1.44,1.5-.2,2-.87,2.15-2.34q1.53-18,3.18-36.09a39.79,39.79,0,0,1,.74-6.19c1.35-5.41,7.11-7.61,10.44-3.87a9.22,9.22,0,0,1,1.87,5.72c0,4.95-.49,9.9-.89,14.85-.67,8.37-1.42,16.74-2.15,25.26,1.26.25,2.45.39,3.6.71,2.9.83,4.08,3.67,2.27,6.07A14.66,14.66,0,0,1,578,554c-1.81,1.08-3.11,2.06-3.28,4.5-.61,8.9-1.61,17.76-.67,26.7a69.35,69.35,0,0,1,.48,9.44,4.8,4.8,0,0,1-6.42,4.6,7.66,7.66,0,0,1-5.74-5.8c-2.3-9.15-2-18.4-1.31-27.67.14-1.93.18-3.85.29-6.3a79.6,79.6,0,0,1-31.93.48c.06,1.93,0,3.55.16,5.17.72,8.87,1.5,17.74,2.2,26.61A46.51,46.51,0,0,1,532,598a4.5,4.5,0,0,1-6.88,3.75,12.37,12.37,0,0,1-6.55-10.28c-.72-9.45-1.23-18.91-1.8-28.37a25.2,25.2,0,0,1,0-3,5.11,5.11,0,0,0-2.26-5c-4-2.92-3.54-7.74.7-10.28,1.2-.72,1.21-1.58,1.21-2.68,0-15,0-30.05.11-45.07,0-3.88.31-7.76.59-11.63.43-5.75,6.48-8.3,10.61-4.46a7.32,7.32,0,0,1,1.92,3.42,18.21,18.21,0,0,1,.24,4.5q-.21,23.72-.49,47.44C529.39,539.71,529.15,543.15,529,546.75Z" transform="translate(-510.78 -478.1)"/>
    <path class="cls-1" d="M770.19,566.7c4.7-.07,9.14-.18,13.59-.2a16.26,16.26,0,0,1,9.2,2.61c3.33,2.18,3.31,5.33.07,7.68-3.56,2.57-7.74,2.32-11.79,2.55-2.8.15-5.6.12-8.41.11-1.29,0-1.85.43-2.13,1.77-1.15,5.35-4.27,7-9.52,5.63-1.89-.52-2.38-1.93-3-3.36-1.35-3.31-1.32-3.37-4.88-2.89-4.06.54-8.1,1.14-12.15,1.74-3.05.46-5.68-.05-7.58-2.81-1.32-1.9-1.08-6.11.84-7.39a15.75,15.75,0,0,1,5.57-2.53c5-.93,10.08-1.47,15.13-2.17l2.11-.32c-.24-1.8-.45-3.49-.7-5.17-.88-6-2-12.06-2.59-18.13a65.19,65.19,0,0,1-.15-13.32c.4-3.78,1.87-7.45,2.9-11.16a13.79,13.79,0,0,1,.8-1.85,9.7,9.7,0,0,0-1.21-.27c-7.94-.43-15.35-2.85-22.6-6-1.9-.81-3.93-1.37-5.83-2.21a10.31,10.31,0,0,1-5.41-6.11c-1.4-3.6.56-6.72,4.41-6.62a22.66,22.66,0,0,1,6.48,1.28c4.22,1.39,8.35,3.08,12.54,4.57,7,2.47,14.22,2.41,21.5,2.31a49.41,49.41,0,0,0,17.87-3.36,13.41,13.41,0,0,1,4.63-.84c3.33-.06,5.52,1.89,6.13,5.14a6.78,6.78,0,0,1-3.76,7.28c-1.66.67-3.47.95-5.13,1.63-4.95,2-10,3.94-14.74,6.33-4.25,2.13-5.71,6.25-5.9,10.78a97.86,97.86,0,0,0,1.69,22.07C769,557.82,769.51,562.16,770.19,566.7Z" transform="translate(-510.78 -478.1)"/>
    <path class="cls-1" d="M844,545.59a49.66,49.66,0,0,1,3.64-4.32,35.58,35.58,0,0,1,5.58-4.55c6.22-3.77,12.28-1.34,15.4,4.34,1.74,3.17,2.15,7.07,3.11,10.66a13.77,13.77,0,0,1,.17,2.51l3.79-4.11c3-3.29,6.34-6.17,10.93-6.75a10.07,10.07,0,0,1,9.65,4,30.68,30.68,0,0,1,5.63,10.8c1,3.67,2.27,7.27,3.33,10.92s.24,6.12-2.29,7.81a6.07,6.07,0,0,1-8.92-2.07,62.54,62.54,0,0,1-2.83-7.88c-1-2.86-1.9-5.73-2.88-8.58a17.05,17.05,0,0,0-1.08-2,36.59,36.59,0,0,0-3.93,4.64c-2.4,4-4.53,8.14-6.82,12.19a20.11,20.11,0,0,1-2,2.79c-2,2.52-4.47,4.37-8,3.42s-5.5-3.71-5.91-7.21c-.51-4.27-.51-8.6-.86-12.89-.27-3.32-.73-6.61-1.1-9.91l-.81-.14a25.94,25.94,0,0,0-3.33,3.74c-3.08,5.1-6.09,10.23-7.42,16.16a22.55,22.55,0,0,1-2.39,5.51c-1.84,3.44-4.75,5-7.89,4.34-2.85-.56-5.26-3.53-5.53-7.19-.2-2.79-.07-5.61-.13-8.41-.19-8.4-.42-16.8-.61-25.2a12.91,12.91,0,0,1,.13-3.41,6.21,6.21,0,0,1,5.26-4.77,6,6,0,0,1,6.19,3.79,43,43,0,0,1,1.6,7.54A41.49,41.49,0,0,1,844,545.59Z" transform="translate(-510.78 -478.1)"/>
    <path class="cls-1" d="M1404.55,566a60.32,60.32,0,0,1,2.82,6.65c1.24,4.29-.1,8-2.85,11.42-3.39,4.18-7.73,6.82-12.61,9-12.32,5.47-24.8,5.61-37.43,1.68a100.69,100.69,0,0,1-14.85-5.65c-2.92-1.45-5.36-4-7.75-6.38a28.73,28.73,0,0,1-4.76-6.06,41.05,41.05,0,0,1-4.16-9.1c-.82-2.87.43-5.54,3.14-7.19a5.3,5.3,0,0,1,7.1,1.26,6.25,6.25,0,0,1,1.09,1.59c2,5.26,5.65,9.3,9.38,13.29a9.81,9.81,0,0,0,3.13,1.74,64.11,64.11,0,0,0,20.34,6.09c9.11.95,17.58-.83,25.13-6.16a93.87,93.87,0,0,0,8-6.47,23.22,23.22,0,0,0,2.78-3.54C1403.52,567.57,1403.92,566.93,1404.55,566Z" transform="translate(-510.78 -478.1)"/>
    <path class="cls-1" d="M648.87,514.75c.32-7.17.45-14.36,1-21.52.39-4.89,3.64-8.09,8.54-6.63a4,4,0,0,1,3.1,3.45,51.59,51.59,0,0,1,.59,8.32c-.32,11.49-.87,23-1.17,34.45a83.53,83.53,0,0,0,.65,10.1,8.78,8.78,0,0,1-2.83,7.17c-1.73,1.79-5.55,1.39-7.52-1a12.86,12.86,0,0,1-2.6-5.29,35.84,35.84,0,0,1-.64-8.15c.19-7,.58-13.92.89-20.88Z" transform="translate(-510.78 -478.1)"/>
    <path class="cls-1" d="M602.59,546.33c0-.94,0-1.88.13-2.8a7,7,0,0,1,6.47-6.15c2.84-.06,5.69,2.4,6.12,5.87s.31,7.17.65,10.73c.65,7,1.53,14,2.13,21a15.78,15.78,0,0,1-.57,6.09c-1.39,4.19-5.91,5.27-8.83,2a13.62,13.62,0,0,1-3.43-6.72c-1.33-10-2.2-20-3.23-29.94Z" transform="translate(-510.78 -478.1)"/>
    <path class="cls-1" d="M1380.85,501.53c.37-1.14.85-2.34,1.15-3.58.93-3.78,4.31-5.6,7.91-4a7.14,7.14,0,0,1,4.62,5.93c.91,6.89,2.14,13.74,3.11,20.62a19.42,19.42,0,0,1,.14,6.22c-.39,2.08-1,4.59-2.47,5.89-3.52,3.17-8.15,1.54-9.64-3a18.18,18.18,0,0,1-.61-3.37c-1-7.67-1.89-15.35-2.92-23C1382.06,502.57,1381.29,502.07,1380.85,501.53Z" transform="translate(-510.78 -478.1)"/>
    <path class="cls-1" d="M1345.83,530.89c-.3,2.42-.32,4.64-2.45,6.15-3.48,2.46-9,.44-9.48-3.74-.89-8-1.59-16-2.24-24a9.18,9.18,0,0,1,2.49-7.53,5.88,5.88,0,0,1,9.91,2.13,10.72,10.72,0,0,1,.51,3.16q.54,8.58,1,17.16C1345.68,526.54,1345.75,528.83,1345.83,530.89Z" transform="translate(-510.78 -478.1)"/>
    <path class="cls-1" d="M821.93,515.78a41.1,41.1,0,0,1-2.47,6.73c-1.69,3-4,3.12-6.44.72a12.22,12.22,0,0,1-3.75-7.32c-.44-3.34-.74-6.71-1-10.07a11.29,11.29,0,0,1,.19-2.78c.6-3.38,3.08-5.75,6-5.8a6.37,6.37,0,0,1,6.27,5.72C821.26,507,821.49,511,821.93,515.78Z" transform="translate(-510.78 -478.1)"/>
    <path class="cls-1" d="M665.58,574.68c-.22,4.68-1.58,6.35-5.61,7.49a6.88,6.88,0,0,0-2.1,1,6.67,6.67,0,0,1-10.39-3.79A9.2,9.2,0,0,1,652,569c.68-.39,1.33-.84,2-1.21,2.67-1.44,5.38-2,8.12-.22A7.17,7.17,0,0,1,665.58,574.68Z" transform="translate(-510.78 -478.1)"/>
    <path class="cls-1" d="M1062.66,511.1a67.28,67.28,0,0,1-2,6.48,6.94,6.94,0,0,1-5.66,4.15c-1.32.15-3.36-1.72-4.27-3.18-2.43-3.89-1.86-8.3-1.1-12.54a5.81,5.81,0,0,1,6.34-4.92,6.71,6.71,0,0,1,6.24,5.81c.14,1.35,0,2.72,0,4.08A2.53,2.53,0,0,1,1062.66,511.1Z" transform="translate(-510.78 -478.1)"/>
    <path class="cls-1" d="M608.57,519.75c-1.37-2.11-2.68-4-3.88-6a5.69,5.69,0,0,1,1.2-7.41c2.09-1.91,5.36-2.27,7.36-.83a6.35,6.35,0,0,1,.71,9.62C612.17,516.76,610.3,518.29,608.57,519.75Z" transform="translate(-510.78 -478.1)"/>
    <path class="cls-1" d="M1263.87,581.07l1.76-.78c.86,2,1.8,3.73,2.43,5.61a5.77,5.77,0,0,1-1.57,6.34,6.47,6.47,0,0,1-7,1.42c-3.32-1.22-5.27-3.88-6.88-6.83-1.09-2-2.07-4-3.13-6.11a43.22,43.22,0,0,1-16.08,12.83,22.74,22.74,0,0,1-19.61.48c-3-1.36-5.12-4.65-7.58-7.1a11,11,0,0,1-1.24-2c-1.51,2.22-3.22,4-5.92,4-3.8,0-6.9-1.95-9.65-4.27s-5.49-5.18-8.28-7.83c-1,2-2.22,4.05-3.22,6.23-2.59,5.73-6.73,9.55-13.14,10-4.92.3-9.22-1.25-11.43-6.13a39.59,39.59,0,0,1-5.57.4c-4.28-.28-7.39-2.86-9.69-6.13a84.28,84.28,0,0,1-5.4-9.72,43.14,43.14,0,0,1-1.58-4.06c-.94,1.68-1.66,3.08-2.47,4.43-1.71,2.82-3.17,5.85-5.28,8.33a15.42,15.42,0,0,1-6.37,4.78c-4.56,1.47-9.28-2.48-10.16-7.83-.07-.42-.1-.84-.19-1.61-1.44,1.11-2.71,2-3.93,3-4,3.24-8,6.31-13,7.83-5.69,1.74-11.4,1.94-16.29-1.81-5.11-3.93-7.56-9.59-6.39-16a80.09,80.09,0,0,1,4.75-14.89,40.72,40.72,0,0,1,4.74-7.88,17.23,17.23,0,0,1,7.83-6.17c4-1.63,8.91.14,10.43,4.15a14.26,14.26,0,0,1,1,5.86,6.11,6.11,0,0,1-8.4,5.32c-1.15-.4-2-.46-2.44.73q-2.61,6.68-5.1,13.41a5.59,5.59,0,0,0-.11,2.35c.21,2.45,1.63,3.56,4.13,3.1,4.48-.82,8.1-3.27,11.33-6.31,2.7-2.54,5.36-5.14,7.92-7.83a3.81,3.81,0,0,0,1.14-2.63c-1.44-14.9-2.43-29.81-1.84-44.78a23.07,23.07,0,0,1,1.51-7.49,5.73,5.73,0,0,1,6.27-3.58,6.49,6.49,0,0,1,5,5.59,26.1,26.1,0,0,1,.09,4.51c-.76,17.42.7,34.73,2.72,52.64a18.9,18.9,0,0,0,1.41-2.61,20.7,20.7,0,0,1,5.87-8.85c4.56-4.3,10.36-3.89,13.88,1.33,1.64,2.43,2.59,5.34,3.81,8,1.55,3.39,3,6.83,4.63,10.17.4.81,1.46,1.3,2.44,2.12.59-3.31.91-6.16,1.62-8.91,1.67-6.44,4-12.51,9-17.34,5.38-5.18,13.71-4.71,17.12-1.45,1.75,1.67,3.86,2.92,5.47,4.54,1.91,1.94,2.91,4.82,4.1,7.39s2,5.26,3.16,7.77a13.73,13.73,0,0,0,3,4.12c2.83,2.52,5.88,4.81,8.85,7.19l.86-.74a18.86,18.86,0,0,0-1.86-2.95c-4-4.25-3.17-8.48,2.09-11a3.79,3.79,0,0,0,1.37-2c2-5.21,4.45-10.21,9.29-13.42a14.26,14.26,0,0,1,12.28-2.13c7.52,2.26,10,7.9,6.64,15.09s-8,12.58-16.25,14a5.75,5.75,0,0,0-1,.35c.26,7.39,4.76,8.75,11.24,6.77a22.37,22.37,0,0,0,10.41-7.34c2-2.31,4.6-4,7-5.92a5.61,5.61,0,0,0,2.44-5.64c-1.62-16.38.2-32.59,3-48.7a93.66,93.66,0,0,1,2.83-11.26,13.11,13.11,0,0,1,2.59-4.4,6.21,6.21,0,0,1,7.65-1.51,6.59,6.59,0,0,1,2.78,7.53c-5,14.46-6.17,29.5-6.52,44.6-.16,6.79.92,13.59,1.28,20.4A27,27,0,0,0,1263.87,581.07Zm-99.49-.87a7.66,7.66,0,0,0,1.31-1.32,56.6,56.6,0,0,0,6-16c.49-2.32-.49-3.76-2.06-5.09C1164.76,561.59,1161.67,574.44,1164.38,580.2Z" transform="translate(-510.78 -478.1)"/>
    <path class="cls-2" d="M1164.38,580.2c-2.71-5.76.38-18.61,5.24-22.44,1.57,1.33,2.55,2.77,2.06,5.09a56.6,56.6,0,0,1-6,16A7.66,7.66,0,0,1,1164.38,580.2Z" transform="translate(-510.78 -478.1)"/>
</svg>