<?xml version="1.0" encoding="utf-8"?>
<!-- Generator: Adobe Illustrator 24.1.1, SVG Export Plug-In . SVG Version: 6.00 Build 0)  -->
<svg version="1.1" id="Name" xmlns="http://www.w3.org/2000/svg" xmlns:xlink="http://www.w3.org/1999/xlink" x="0px" y="0px"
	 viewBox="0 0 1920 1080" style="enable-background:new 0 0 1920 1080;" xml:space="preserve">
<style type="text/css">
	.st0{fill:#FFFFFF;}
</style>
<path d="M1523.1,556.5c1.21-0.53,2.1-0.93,3.2-1.42c1.56,3.54,3.27,6.77,4.41,10.19c1.43,4.3,0.48,8.41-2.86,11.51
	c-3.61,3.36-7.99,4.32-12.72,2.58c-6.03-2.22-9.57-7.05-12.5-12.4c-1.98-3.6-3.76-7.32-5.69-11.1
	c-7.91,10.43-17.91,17.9-29.19,23.31c-11.5,5.51-24.03,6.11-35.62,0.86c-5.43-2.46-9.29-8.43-13.77-12.89
	c-0.88-0.88-1.36-2.15-2.25-3.59c-2.73,4.03-5.84,7.21-10.74,7.18c-6.91-0.04-12.53-3.53-17.53-7.75
	c-5.23-4.41-9.98-9.4-15.04-14.22c-1.86,3.57-4.04,7.35-5.84,11.32c-4.71,10.4-12.23,17.34-23.88,18.06
	c-8.92,0.55-16.74-2.26-20.75-11.13c-3.46,0.28-6.81,0.95-10.11,0.73c-7.78-0.5-13.42-5.2-17.61-11.13
	c-3.87-5.46-6.68-11.69-9.8-17.65c-1.08-2.06-1.71-4.36-2.87-7.38c-1.7,3.05-3.01,5.6-4.49,8.05c-3.1,5.12-5.76,10.62-9.59,15.13
	c-3.07,3.62-7.2,7.25-11.57,8.67c-8.28,2.68-16.84-4.49-18.44-14.21c-0.13-0.76-0.18-1.53-0.34-2.93c-2.62,2.02-4.93,3.72-7.15,5.54
	c-7.19,5.89-14.57,11.46-23.62,14.23c-10.33,3.16-20.71,3.52-29.58-3.3c-9.29-7.14-13.73-17.42-11.62-28.98
	c1.69-9.25,5.15-18.26,8.63-27.05c2.02-5.11,5.45-9.72,8.61-14.31c3.54-5.14,8.37-8.79,14.22-11.19c7.22-2.96,16.19,0.24,18.95,7.53
	c1.26,3.32,2.05,7.14,1.81,10.64c-0.52,7.75-7.92,12.28-15.26,9.67c-2.09-0.74-3.59-0.85-4.43,1.31c-3.16,8.09-6.27,16.2-9.26,24.36
	c-0.47,1.28-0.32,2.85-0.2,4.27c0.39,4.45,2.96,6.46,7.51,5.63c8.12-1.49,14.7-5.93,20.57-11.46c4.91-4.62,9.73-9.34,14.39-14.21
	c1.15-1.2,2.22-3.25,2.07-4.79c-2.63-27.05-4.42-54.14-3.34-81.32c0.18-4.58,1.05-9.36,2.74-13.6c1.99-4.99,7.1-7.32,11.38-6.51
	c4.55,0.87,8.36,4.94,9.06,10.15c0.36,2.69,0.28,5.47,0.16,8.2c-1.37,31.64,1.27,63.07,4.95,95.6c1.17-2.14,2.11-3.36,2.55-4.74
	c2.02-6.4,5.86-11.54,10.67-16.07c8.28-7.81,18.81-7.07,25.21,2.41c2.98,4.41,4.69,9.69,6.92,14.6c2.8,6.16,5.4,12.41,8.4,18.47
	c0.73,1.48,2.66,2.37,4.43,3.86c1.07-6.02,1.65-11.2,2.95-16.19c3.03-11.69,7.19-22.72,16.3-31.49c9.78-9.41,24.9-8.55,31.09-2.64
	c3.18,3.03,7.01,5.31,9.93,8.26c3.47,3.51,5.3,8.75,7.46,13.42c2.13,4.6,3.53,9.55,5.74,14.1c1.33,2.75,3.24,5.45,5.51,7.48
	c5.15,4.59,10.69,8.74,16.07,13.07c0.52-0.45,1.04-0.9,1.56-1.35c-1.11-1.8-1.95-3.84-3.37-5.35c-7.24-7.72-5.76-15.4,3.79-19.94
	c1.15-0.55,1.96-2.24,2.49-3.57c3.72-9.46,8.09-18.55,16.87-24.37c6.75-4.47,14.42-6.24,22.31-3.87
	c13.65,4.1,18.11,14.35,12.05,27.41c-5.97,12.86-14.62,22.85-29.5,25.51c-0.62,0.11-1.2,0.43-1.75,0.64
	c0.47,13.42,8.65,15.89,20.42,12.29c7.45-2.27,13.66-7.13,18.9-13.33c3.54-4.19,8.35-7.35,12.77-10.74
	c3.47-2.67,4.9-5.52,4.43-10.25c-2.94-29.75,0.37-59.18,5.51-88.44c1.22-6.91,3.08-13.74,5.15-20.45c0.89-2.89,2.73-5.66,4.71-8
	c3.57-4.2,9.62-5.17,13.88-2.74c4.32,2.47,6.79,8.6,5.05,13.67c-8.99,26.27-11.2,53.58-11.84,81c-0.29,12.33,1.67,24.69,2.33,37.06
	C1517.46,543.5,1519.73,549.89,1523.1,556.5z M1342.42,554.92c0.99-0.98,1.9-1.57,2.37-2.4c5.15-9.13,8.69-18.85,10.88-29.11
	c0.9-4.22-0.89-6.82-3.74-9.25C1343.1,521.12,1337.5,544.46,1342.42,554.92z"/>
<path d="M1132.44,556.86c-1.26,1.84-2.22,3.88-3.73,5.35c-5.22,5.06-14.54,6.41-20.7,2.39c-3.93-2.57-7.82-5.87-10.38-9.73
	c-4.59-6.93-7.9-14.51-9.04-23.07c-1.6-11.96-4.05-23.81-6.26-36.4c-1.48,3.33-2.76,6.2-4.03,9.07
	c-4.13,9.36-9.03,18.25-17.38,24.54c-12.11,9.12-26.32,7.4-37.05-3.38c-7.24-7.27-13.33-15.2-18.58-24.34
	c-0.12,1.33-0.28,2.66-0.35,3.99c-0.74,15.39-1.39,30.78-2.26,46.16c-0.18,3.22-0.62,6.62-1.89,9.52
	c-1.72,3.91-7.97,5.72-12.81,4.43c-4.53-1.2-8.45-5.68-8.35-10.08c0.18-7.7,0.63-15.39,0.97-23.08c1.39-31.42,3.41-62.84,1.48-94.32
	c-0.17-2.82,1.04-5.82,1.99-8.61c2.88-8.44,13.81-6.86,17.46-1.41c1.43,2.14,2.64,4.5,3.52,6.92c3.49,9.53,6.6,19.19,10.25,28.65
	c3.66,9.47,7.19,19.07,11.92,28.01c3.41,6.45,8.35,12.2,13.24,17.71c3.14,3.54,5.21,3.29,7.98-0.46c3.46-4.68,7.02-9.55,9.14-14.9
	c6.55-16.53,11.05-33.65,13.5-51.33c1.11-7.99,3.09-15.88,5-23.74c1.42-5.89,6.87-9.73,12.72-9.54c5.32,0.17,10.97,5,11.65,10.83
	c1.04,8.93,1.69,17.92,2.19,26.91c1.37,24.76,2.8,49.52,7.56,73.93c1.19,6.09,3.04,12.06,4.74,18.04c0.41,1.44,1.43,2.7,2.12,3.96
	c8.24-2.33,11.47-7.11,11.66-15.08c0.24-10.3,0.59-20.65,1.91-30.85c0.58-4.5,3.5-8.77,5.69-12.97c1.36-2.61,3.36-4.88,5.1-7.34
	c7.56,8.05,13.37,16.21,11.92,28.52c-1.43,12.1-0.63,24.47-0.65,36.72c0,1.72,0.94,3.44,1.48,5.15c0.79,2.47,1.99,4.87,2.33,7.4
	c0.66,4.85-2.14,9.82-6.12,11.82c-3.72,1.86-9.61,0.76-13.01-2.77C1135.55,561.55,1134.16,559.19,1132.44,556.86z"/>
<path d="M188.49,494.17c14.37,2.11,28.02,4.26,41.9,1.99c5.41-0.88,10.8-1.9,16.22-2.61c2.72-0.36,3.67-1.57,3.9-4.25
	c1.85-21.85,3.81-43.69,5.77-65.53c0.34-3.76,0.44-7.61,1.35-11.25c2.45-9.82,12.92-13.82,18.96-7.03c2.25,2.53,3.4,6.88,3.39,10.39
	c-0.03,8.99-0.89,17.98-1.61,26.96c-1.22,15.21-2.58,30.41-3.9,45.89c2.28,0.44,4.45,0.7,6.53,1.29c5.28,1.5,7.41,6.65,4.12,11.02
	c-1.94,2.58-4.79,4.66-7.61,6.35c-3.28,1.96-5.64,3.74-5.95,8.18c-1.11,16.15-2.92,32.25-1.22,48.48c0.6,5.69,1.05,11.44,0.88,17.14
	c-0.2,6.34-5.53,10.08-11.66,8.36c-5.3-1.49-9-4.85-10.43-10.54c-4.17-16.6-3.54-33.4-2.37-50.24c0.24-3.5,0.32-7,0.52-11.45
	c-19.16,4.34-38.29,4.37-57.98,0.87c0.1,3.51,0.06,6.46,0.29,9.39c1.3,16.12,2.71,32.22,3.99,48.34c0.3,3.77,0.53,7.57,0.33,11.33
	c-0.35,6.49-6.8,9.99-12.5,6.81c-7.27-4.06-11.26-10.56-11.89-18.68c-1.32-17.15-2.23-34.34-3.27-51.51
	c-0.11-1.82-0.02-3.66,0.08-5.48c0.2-3.76-0.5-6.51-4.1-9.14c-7.24-5.3-6.42-14.07,1.28-18.68c2.17-1.3,2.2-2.87,2.2-4.86
	c0.03-27.29,0.03-54.57,0.2-81.86c0.04-7.04,0.55-14.09,1.07-21.12c0.77-10.44,11.77-15.06,19.27-8.1c1.67,1.56,2.91,3.98,3.48,6.22
	c0.66,2.6,0.46,5.44,0.44,8.17c-0.26,28.72-0.53,57.44-0.89,86.15C189.22,481.39,188.78,487.63,188.49,494.17z"/>
<path d="M626.53,530.4c8.54-0.13,16.61-0.32,24.69-0.36c6-0.03,11.68,1.43,16.71,4.73c6.04,3.97,6,9.69,0.12,13.95
	c-6.47,4.68-14.06,4.22-21.42,4.63c-5.07,0.28-10.17,0.23-15.26,0.2c-2.34-0.02-3.36,0.78-3.88,3.23
	c-2.09,9.71-7.75,12.8-17.29,10.21c-3.42-0.93-4.31-3.5-5.37-6.1c-2.45-6.01-2.4-6.11-8.86-5.25c-7.37,0.98-14.72,2.07-22.06,3.17
	c-5.55,0.83-10.33-0.09-13.78-5.1c-2.39-3.46-1.96-11.11,1.54-13.43c3.07-2.03,6.56-3.94,10.11-4.6c9.09-1.69,18.31-2.66,27.48-3.93
	c1.14-0.16,2.27-0.34,3.83-0.58c-0.44-3.28-0.82-6.35-1.27-9.4c-1.6-10.97-3.62-21.9-4.71-32.92c-0.79-8.01-1.12-16.22-0.27-24.19
	c0.73-6.87,3.4-13.53,5.26-20.27c0.3-1.08,0.9-2.08,1.46-3.36c-0.98-0.22-1.59-0.45-2.2-0.49c-14.42-0.78-27.88-5.17-41.04-10.8
	c-3.46-1.48-7.13-2.5-10.58-4.01c-4.93-2.16-7.92-6.2-9.83-11.11c-2.54-6.53,1.01-12.2,8-12.02c3.95,0.1,8,1.08,11.78,2.33
	c7.66,2.53,15.15,5.59,22.76,8.29c12.68,4.49,25.84,4.39,39.06,4.21c11.22-0.15,21.99-1.95,32.44-6.1c2.6-1.04,5.59-1.48,8.41-1.53
	c6.06-0.11,10.03,3.42,11.13,9.33c0.98,5.25-2.02,11.32-6.82,13.23c-3.02,1.2-6.31,1.72-9.32,2.95c-8.99,3.68-18.1,7.15-26.76,11.49
	c-7.73,3.88-10.38,11.36-10.72,19.59c-0.56,13.47,0.6,26.81,3.06,40.08C624.36,514.27,625.3,522.16,626.53,530.4z"/>
<path d="M760.51,492.07c2.61-3.15,4.37-5.76,6.61-7.86c3.17-2.97,6.44-6.01,10.13-8.25c11.29-6.85,22.31-2.44,27.97,7.87
	c3.16,5.76,3.91,12.85,5.65,19.37c0.32,1.2,0.19,2.52,0.31,4.55c2.62-2.84,4.75-5.15,6.87-7.46c5.46-5.97,11.53-11.2,19.85-12.26
	c6.99-0.89,12.93,1.49,17.53,7.27c4.71,5.92,8.16,12.35,10.22,19.62c1.89,6.65,4.13,13.19,6.05,19.83
	c1.88,6.52,0.45,11.1-4.15,14.18c-5.57,3.73-13.16,2.26-16.2-3.77c-2.26-4.5-3.51-9.51-5.15-14.31c-1.77-5.18-3.45-10.4-5.23-15.58
	c-0.33-0.96-0.98-1.81-1.96-3.58c-2.61,3.03-5.34,5.44-7.14,8.43c-4.35,7.25-8.22,14.78-12.38,22.14c-1.02,1.8-2.33,3.45-3.64,5.06
	c-3.73,4.59-8.12,7.95-14.49,6.22c-6.59-1.79-9.98-6.73-10.73-13.09c-0.92-7.76-0.93-15.62-1.56-23.42c-0.48-6.02-1.32-12-2-18
	c-0.49-0.08-0.98-0.17-1.46-0.25c-2.05,2.25-4.52,4.25-6.06,6.8c-5.59,9.25-11.05,18.57-13.47,29.35
	c-0.79,3.49-2.61,6.82-4.33,10.01c-3.35,6.23-8.64,9-14.34,7.88c-5.17-1.02-9.55-6.42-10.04-13.07c-0.37-5.07-0.12-10.18-0.24-15.27
	c-0.35-15.25-0.76-30.51-1.11-45.76c-0.05-2.07-0.25-4.23,0.25-6.19c1.23-4.86,5.14-8.22,9.54-8.67c4.46-0.46,9.47,2.1,11.24,6.89
	c1.6,4.33,2.11,9.08,2.92,13.68C760.34,486.61,760.3,488.84,760.51,492.07z"/>
<path d="M1778.58,529.15c1.94,4.48,4,8.14,5.13,12.08c2.25,7.78-0.19,14.57-5.18,20.74c-6.15,7.59-14.03,12.38-22.9,16.31
	c-22.37,9.92-45.03,10.18-67.98,3.04c-9.18-2.85-18.38-6.01-26.96-10.26c-5.31-2.63-9.74-7.32-14.08-11.58
	c-3.31-3.25-6.34-6.99-8.65-11c-3.02-5.24-5.89-10.76-7.54-16.53c-1.49-5.22,0.78-10.07,5.69-13.07c4.43-2.71,9.69-1.72,12.9,2.29
	c0.73,0.91,1.58,1.83,1.98,2.9c3.58,9.54,10.26,16.89,17.04,24.13c1.41,1.51,3.7,2.25,5.67,3.16c11.78,5.46,23.94,9.7,36.95,11.06
	c16.55,1.73,31.93-1.51,45.64-11.18c5.09-3.59,9.89-7.64,14.57-11.76c2.01-1.77,3.41-4.23,5.05-6.42
	C1776.72,531.98,1777.45,530.82,1778.58,529.15z"/>
<path d="M406.21,436.06c0.58-13.03,0.82-26.09,1.86-39.09c0.71-8.88,6.61-14.69,15.52-12.04c3.35,1,5.21,3.18,5.63,6.27
	c0.67,5,1.21,10.08,1.07,15.11c-0.59,20.86-1.58,41.71-2.12,62.57c-0.16,6.1,0.58,12.24,1.17,18.34c0.52,5.3-1.69,9.44-5.13,13.01
	c-3.14,3.25-10.08,2.53-13.67-1.85c-2.22-2.71-3.99-6.2-4.71-9.61c-1.02-4.8-1.28-9.86-1.16-14.79c0.33-12.65,1.05-25.28,1.61-37.92
	C406.26,436.06,406.24,436.06,406.21,436.06z"/>
<path d="M322.15,493.4c0.08-1.69,0-3.41,0.25-5.07c0.95-6.3,5.99-11.03,11.75-11.17c5.16-0.12,10.32,4.36,11.11,10.65
	c0.81,6.45,0.56,13.02,1.17,19.5c1.18,12.71,2.79,25.37,3.87,38.08c0.31,3.65,0.1,7.62-1.03,11.06c-2.52,7.61-10.73,9.57-16.04,3.63
	c-2.97-3.33-5.64-7.9-6.22-12.21c-2.41-18.06-3.99-36.23-5.87-54.37C321.47,493.46,321.81,493.43,322.15,493.4z"/>
<path d="M1735.54,412.05c0.68-2.08,1.54-4.25,2.09-6.5c1.7-6.86,7.83-10.18,14.37-7.3c4.57,2.01,7.66,5.27,8.39,10.76
	c1.66,12.52,3.88,24.96,5.65,37.46c0.53,3.72,0.94,7.66,0.26,11.29c-0.71,3.77-1.87,8.33-4.5,10.7c-6.38,5.76-14.79,2.79-17.5-5.5
	c-0.64-1.96-0.85-4.07-1.11-6.13c-1.76-13.93-3.44-27.87-5.31-41.79C1737.75,413.94,1736.34,413.02,1735.54,412.05z"/>
<path d="M1671.95,465.37c-0.55,4.39-0.59,8.42-4.46,11.16c-6.31,4.47-16.36,0.81-17.21-6.79c-1.62-14.48-2.88-29-4.06-43.52
	c-0.41-5.05,0.73-9.89,4.51-13.69c5.85-5.89,15.1-3.95,18.01,3.87c0.66,1.78,0.8,3.81,0.92,5.74c0.65,10.39,1.23,20.77,1.79,31.17
	C1671.68,457.46,1671.8,461.62,1671.95,465.37z"/>
<path d="M720.49,437.92c-1.19,3.37-2.21,8.14-4.47,12.23c-3.07,5.54-7.22,5.66-11.7,1.3c-3.78-3.68-6.15-8.1-6.82-13.29
	c-0.79-6.07-1.33-12.18-1.84-18.28c-0.14-1.67,0.05-3.4,0.34-5.06c1.08-6.13,5.59-10.43,10.89-10.52
	c5.52-0.1,10.53,4.13,11.39,10.39C719.28,421.9,719.69,429.2,720.49,437.92z"/>
<path d="M436.56,544.9c-0.4,8.49-2.88,11.52-10.19,13.59c-1.34,0.38-2.69,1-3.82,1.82c-6.91,5.03-16.87,1.43-18.87-6.88
	c-1.82-7.55,1.46-15,8.24-18.8c1.25-0.7,2.43-1.52,3.68-2.2c4.84-2.6,9.76-3.7,14.75-0.4C435.33,535.31,437.09,540.06,436.56,544.9z
	"/>
<path d="M1157.68,429.42c-1.15,3.94-1.99,8-3.53,11.78c-1.81,4.46-6.16,7.07-10.28,7.53c-2.4,0.27-6.1-3.12-7.76-5.78
	c-4.42-7.05-3.38-15.07-2-22.77c1.07-5.96,5.85-9.26,11.52-8.93c5.72,0.33,10.72,4.88,11.32,10.55c0.26,2.45,0.06,4.94,0.08,7.41
	C1157.25,429.27,1157.47,429.34,1157.68,429.42z"/>
<path d="M333.02,445.14c-2.49-3.84-4.87-7.3-7.04-10.89c-2.77-4.57-1.86-9.75,2.17-13.44c3.8-3.47,9.74-4.14,13.36-1.52
	c4.5,3.27,6.08,9.02,3.72,13.97c-0.61,1.27-1.4,2.57-2.43,3.5C339.55,439.71,336.16,442.48,333.02,445.14z"/>
<path class="st0" d="M1342.42,554.92c-4.92-10.46,0.68-33.79,9.51-40.76c2.85,2.43,4.64,5.03,3.74,9.25
	c-2.2,10.26-5.73,19.98-10.88,29.11C1344.32,553.35,1343.41,553.93,1342.42,554.92z"/>
</svg>
