<svg id="logo" 
    xmlns="http://www.w3.org/2000/svg" 
    xmlns:xlink="http://www.w3.org/1999/xlink" viewBox="0 0 535.01 742.85">
    <defs>
        <style>.cls-1{fill:url(#linear-gradient);}.cls-2{fill:none;stroke:#754c24;stroke-miterlimit:10;stroke-width:40px;}.cls-3{fill:#754c24;}</style>
        <linearGradient id="linear-gradient" x1="879.8" y1="834.54" x2="879.8" y2="130.44" gradientUnits="userSpaceOnUse">
            <stop offset="0.05" stop-color="#fff" stop-opacity="0"/>
            <stop offset="0.1" stop-color="#fefcd9" stop-opacity="0.16"/>
            <stop offset="0.27" stop-color="#fdf256" stop-opacity="0.7"/>
            <stop offset="0.35" stop-color="#fcee21" stop-opacity="0.92"/>
            <stop offset="0.5" stop-color="#fbcd2f" stop-opacity="0.96"/>
            <stop offset="0.66" stop-color="#fbb03b"/>
            <stop offset="0.71" stop-color="#f99e38"/>
            <stop offset="0.81" stop-color="#f57031"/>
            <stop offset="0.95" stop-color="#ee2626"/>
            <stop offset="0.97" stop-color="#ed1c24"/>
        </linearGradient>
    </defs>
    <path class="cls-1" d="M1122,551s-52.16,23.71-80.16,64.71L1035,627c-28,41-5,58-35,98l-8.16,11.71C964.18,773.59,933,791,933,791l-11.13,3-196.5,40.5s-81-30-86.5-109.5,7.19-107.64,30-185c23-78,87-128,87.5-238.5s-60-171-60-171,76.5-2.5,145.5,18.5,102,51,144,90,74,83,96,126,35,140,35,140l5,46" transform="translate(-617.22 -110.91)"/>
    <path class="cls-2" d="M725,835s-81-30-86.5-109.5,7.19-107.64,30-185c23-78,87-128,87.5-238.5s-60-171-60-171,76.5-2.5,145.5,18.5,102,51,144,90,74,83,96,126,35,140,35,140l5,46s-52,22-80,63-20,81-50,121c-27.66,36.88-70,59-70,59s24-11,58-5,47.41,19.83,67,12c40-16,62-27,87-94m-12-156s-45-10-67-11-49-3-72,6-50,36-50,36m-83,236S885,753,885,705s-48-103-49-154c0,0-51,22-78,133-30-96-94.5-122.5-94.5-122.5" transform="translate(-617.22 -110.91)"/>
    <path class="cls-3" d="M748.45,202.49a11.1,11.1,0,0,0,.13,2.2,11.84,11.84,0,0,0,.77,2.48,23.35,23.35,0,0,0,3.55,5.58,69,69,0,0,0,12.18,10.9c9.41,6.85,20.09,12.89,30.81,19,5.38,3.06,10.81,6.15,16.22,9.39s10.81,6.66,16.07,10.52a93.51,93.51,0,0,1,7.71,6.32,48.72,48.72,0,0,1,7,7.87l.76,1.15.62,1.05,1.22,2.11,2.43,4.21,4.26,8.58a303,303,0,0,1,13.36,35.26c3.76,11.92,7.1,23.94,9.85,36.09s5.16,24.35,7,36.65l1.18,9.25c.34,3.09.59,6.19.89,9.28s.35,6.2.54,9.29,0,6.21,0,9.3c-.23-3.09-.35-6.18-.67-9.26s-.67-6.14-1.15-9.19-1-6.11-1.5-9.15l-1.8-9.08c-2.59-12.07-5.76-24-9.31-35.81s-7.62-23.43-12.09-34.86a294.64,294.64,0,0,0-15.22-33.26l-4.53-7.78-2.47-3.67L835,285.11l-.61-.92-.58-.75c-3.18-3.92-7.86-7.41-12.76-10.56s-10.24-6-15.64-8.79-10.95-5.44-16.52-8.14c-11.16-5.43-22.51-10.82-33.66-17.82A86.71,86.71,0,0,1,739,225.3a42.22,42.22,0,0,1-7-9.61,31.4,31.4,0,0,1-2.46-6.21,30,30,0,0,1-1-7v-.19a10,10,0,1,1,20-.57C748.47,202,748.46,202.25,748.45,202.49Z" transform="translate(-617.22 -110.91)"/>
    <path class="cls-3" d="M865.88,154.19c-.31,10,1,20.56,3.15,31.12s5,21.18,8.22,31.74c6.45,21.14,14.15,42.12,21.82,63.15s15.42,42.15,22,63.67c3.28,10.76,6.25,21.63,8.49,32.66S933.3,398.79,933,410c-.54-11.2-2.87-22.16-5.86-32.88s-6.76-21.23-10.78-31.62c-8.1-20.78-17.34-41.11-26.55-61.52s-18.51-40.87-26.74-62c-4.09-10.59-7.92-21.36-11.05-32.54s-5.59-22.78-6.14-35.22a10,10,0,1,1,20-.89c0,.25,0,.49,0,.73Z" transform="translate(-617.22 -110.91)"/>
    <path class="cls-3" d="M975.88,227.6c-3.62,6-7.11,12-10.16,18-1.55,3-2.91,6-4.18,9a78.78,78.78,0,0,0-3,9.13,56.49,56.49,0,0,0-1.51,9.37c0,.8-.13,1.6-.14,2.41l0,2.43c.05,1.62.05,3.35.21,4.79a61.84,61.84,0,0,0,2,9.59c.89,3.28,2,6.59,3.09,9.91,4.53,13.29,10,26.68,13.38,40.79a97,97,0,0,1,2.46,21.56c.09,7.19-.48,14.29-.9,21.39-.36-7.11-.57-14.23-1.44-21.24a93.57,93.57,0,0,0-4.6-20.39c-4.75-13.17-11.46-25.58-17.58-38.61-1.52-3.28-3-6.6-4.39-10.06a73.38,73.38,0,0,1-3.5-11c-.44-2.06-.7-3.88-1-5.79l-.34-2.89c-.1-1-.14-1.95-.21-2.93a70,70,0,0,1,.34-11.84,92.85,92.85,0,0,1,2.21-11.51c1-3.71,2.11-7.36,3.38-10.88,2.49-7.07,5.34-13.82,8.25-20.46a10,10,0,1,1,18.36,8A10.56,10.56,0,0,1,975.88,227.6Z" transform="translate(-617.22 -110.91)"/>
    <path class="cls-3" d="M759.73,273.87c7.07,5.43,13.91,10.88,20.75,16.48s13.57,11.3,20.18,17.31c3.3,3,6.57,6.09,9.77,9.41,1.61,1.66,3.19,3.4,4.76,5.32.39.5.78.95,1.18,1.51l.59.8.29.41.22.34,1.8,2.79a249.27,249.27,0,0,1,13.41,23.18A103,103,0,0,1,837.94,364a69.62,69.62,0,0,1,3.1,13.38,110.57,110.57,0,0,1,.77,13.39v6.57c0,2.21,0,4.46-.1,6.65-.19,4.41-.57,8.78-1,13.13s-1,8.68-1.59,13q-1.8,13-4.08,25.84,1.49-13,2.47-26c.31-4.34.6-8.69.78-13s.3-8.68.22-13c0-2.16-.15-4.27-.33-6.41l-.8-6.47A105,105,0,0,0,835,378.56c-2-8.11-5.86-15.47-10.49-22.51a239.84,239.84,0,0,0-15.45-20.37L807,333.21l-.26-.31-.22-.24-.43-.48c-.26-.31-.62-.65-.93-1-1.32-1.34-2.8-2.7-4.36-4-3.11-2.68-6.45-5.29-9.84-7.85-6.81-5.12-13.87-10-21-14.87s-14.41-9.58-21.63-14.13l0,0A10,10,0,1,1,759,273.34C759.23,273.51,759.49,273.69,759.73,273.87Z" transform="translate(-617.22 -110.91)"/>
    <path class="cls-3" d="M725,123.14c12.5,9.91,24.8,19.88,37,30s24.37,20.41,36.31,31l4.46,4,4.43,4.06c3,2.66,5.87,5.49,8.78,8.25,1.47,1.36,2.88,2.86,4.32,4.29s2.87,2.84,4.26,4.42,2.83,3.06,4.16,4.64,2.66,3.16,3.88,4.78a445.11,445.11,0,0,1,27.08,39.75c4.18,6.8,8.24,13.66,12.1,20.66s7.57,14.09,10.87,21.51,5.89,15,8.4,22.53,4.82,15.17,7,22.81c4.31,15.29,8.13,30.7,11.21,46.27l1.08,5.85c.35,2,.65,3.92,1,5.88s.54,3.94.82,5.9a50.52,50.52,0,0,1,.34,6c0,7.95-.47,15.85-1,23.74.12-7.91.17-15.83-.24-23.7a50.84,50.84,0,0,0-.63-5.81c-.38-1.93-.71-3.87-1.13-5.8s-.82-3.85-1.27-5.77l-1.38-5.75c-3.88-15.29-8.48-30.4-13.54-45.32q-3.79-11.19-8.08-22.18c-2.86-7.31-5.86-14.58-9.32-21.47s-7.49-13.61-11.62-20.26-8.48-13.18-12.93-19.64A436.11,436.11,0,0,0,823,226.57c-1.24-1.48-2.55-2.83-3.82-4.24s-2.66-2.66-4-4-2.77-2.6-4.18-3.9-2.81-2.6-4.31-3.85c-3-2.53-5.87-5.08-8.92-7.55l-4.53-3.72-4.59-3.68c-12.26-9.78-24.8-19.3-37.44-28.71S725.83,148.25,713,139.16l0,0a10,10,0,0,1,11.59-16.31Z" transform="translate(-617.22 -110.91)"/>
    <path class="cls-3" d="M933.88,189.65c-1.9,9.15-3.68,18.49-5.26,27.74s-3,18.59-3.76,27.58c-.08,1.11-.12,2.18-.19,3.28,0,.56,0,1.07,0,1.56v1.51c0,1,.15,2.13.21,3.19l.13,1.61.23,1.66.45,3.33.61,3.37c.36,2.25.92,4.52,1.37,6.79,2,9.08,4.55,18.21,7.16,27.33l8,27.47c1.31,4.61,2.57,9.25,3.71,14s2,9.43,2.94,14.12c3.55,18.78,6.82,37.56,10.06,56.35-4.87-18.43-9.77-36.87-14.93-55.19-1.31-4.57-2.58-9.17-4.08-13.57s-3.13-8.88-4.82-13.31l-10.36-26.65c-3.43-8.95-6.81-17.94-9.75-27.26-.69-2.36-1.47-4.66-2.09-7.08l-1-3.59-.85-3.7-.42-1.85-.32-1.93c-.2-1.31-.48-2.54-.61-3.91l-.18-2.06c-.07-.69-.12-1.38-.13-2,0-1.29-.1-2.6-.12-3.86,0-10.06.61-19.68,1.38-29.33s1.76-19.16,2.9-28.83A10,10,0,1,1,934,188.72c0,.29-.08.57-.13.85Z" transform="translate(-617.22 -110.91)"/>
    <path class="cls-3" d="M1012.7,267.26c.2-.19,0-.05,0,0l-.24.19c-.17.14-.36.31-.55.49-.38.37-.78.75-1.17,1.18-.79.85-1.57,1.78-2.32,2.76a51.71,51.71,0,0,0-4.15,6.4,69.4,69.4,0,0,0-6,14.86,94.08,94.08,0,0,0-3,16.41l-.19,2.11-.07.84c0,.25,0,.51,0,.79a29,29,0,0,0,.33,3.73c.4,2.66,1,5.52,1.69,8.4,1.31,5.79,2.73,11.78,3.55,17.94.21,1.54.37,3.1.49,4.66s.18,3.13.21,4.63.06,3.05.05,4.56,0,3-.07,4.54a239.43,239.43,0,0,1-3.79,35.78,235.28,235.28,0,0,0-1.24-35.56c-.15-1.47-.34-2.93-.55-4.38s-.42-2.91-.66-4.35-.47-2.85-.79-4.23-.65-2.77-1-4.15c-1.55-5.52-3.65-10.92-5.79-16.53-1.06-2.81-2.15-5.67-3.09-8.8a40.24,40.24,0,0,1-1.18-5.07c-.07-.47-.13-.95-.19-1.44s-.08-1.06-.09-1.4l-.12-2.35a107.28,107.28,0,0,1,.79-19.07A85.5,85.5,0,0,1,988.3,271a68.43,68.43,0,0,1,4.32-9.31c.86-1.53,1.78-3,2.82-4.54.52-.75,1.08-1.51,1.67-2.26.3-.39.61-.77.95-1.16l.54-.62c.23-.24.32-.36.79-.8a10,10,0,1,1,13.31,14.92Z" transform="translate(-617.22 -110.91)"/>
</svg>